<svg class="main-svg" xmlns="http://www.w3.org/2000/svg" xmlns:xlink="http://www.w3.org/1999/xlink" width="864" height="510" style="" viewBox="0 0 864 510"><rect x="0" y="0" width="864" height="510" style="fill: rgb(0, 0, 0); fill-opacity: 0;"/><defs id="defs-7b19b6"><g class="clips"><clipPath id="clip7b19b6xyplot" class="plotclip"><rect width="771" height="436"/></clipPath><clipPath class="axesclip" id="clip7b19b6x"><rect x="83" y="0" width="771" height="510"/></clipPath><clipPath class="axesclip" id="clip7b19b6y"><rect x="0" y="22" width="864" height="436"/></clipPath><clipPath class="axesclip" id="clip7b19b6xy"><rect x="83" y="22" width="771" height="436"/></clipPath></g><g class="gradients"/><g class="patterns"/></defs><g class="bglayer"><rect class="bg" x="83" y="22" width="771" height="436" style="fill: rgb(0, 0, 0); fill-opacity: 0; stroke-width: 0;"/></g><g class="layer-below"><g class="imagelayer"/><g class="shapelayer"/></g><g class="cartesianlayer"><g class="subplot xy"><g class="layer-subplot"><g class="shapelayer"/><g class="imagelayer"/></g><g class="minor-gridlayer"><g class="x"/><g class="y"/></g><g class="gridlayer"><g class="x"><path class="xgrid crisp" transform="translate(131.55,0)" d="M0,22v436" style="stroke: rgb(0, 0, 0); stroke-opacity: 0.1; stroke-width: 1px;"/><path class="xgrid crisp" transform="translate(266.33000000000004,0)" d="M0,22v436" style="stroke: rgb(0, 0, 0); stroke-opacity: 0.1; stroke-width: 1px;"/><path class="xgrid crisp" transform="translate(401.11,0)" d="M0,22v436" style="stroke: rgb(0, 0, 0); stroke-opacity: 0.1; stroke-width: 1px;"/><path class="xgrid crisp" transform="translate(535.89,0)" d="M0,22v436" style="stroke: rgb(0, 0, 0); stroke-opacity: 0.1; stroke-width: 1px;"/><path class="xgrid crisp" transform="translate(670.67,0)" d="M0,22v436" style="stroke: rgb(0, 0, 0); stroke-opacity: 0.1; stroke-width: 1px;"/><path class="xgrid crisp" transform="translate(805.45,0)" d="M0,22v436" style="stroke: rgb(0, 0, 0); stroke-opacity: 0.1; stroke-width: 1px;"/></g><g class="y"><path class="ygrid crisp" transform="translate(0,400.38)" d="M83,0h771" style="stroke: rgb(0, 0, 0); stroke-opacity: 0.1; stroke-width: 1px;"/><path class="ygrid crisp" transform="translate(0,235.92)" d="M83,0h771" style="stroke: rgb(0, 0, 0); stroke-opacity: 0.1; stroke-width: 1px;"/><path class="ygrid crisp" transform="translate(0,153.69)" d="M83,0h771" style="stroke: rgb(0, 0, 0); stroke-opacity: 0.1; stroke-width: 1px;"/><path class="ygrid crisp" transform="translate(0,71.46000000000001)" d="M83,0h771" style="stroke: rgb(0, 0, 0); stroke-opacity: 0.1; stroke-width: 1px;"/></g></g><g class="zerolinelayer"><path class="yzl zl crisp" transform="translate(0,318.15)" d="M83,0h771" style="stroke: rgb(255, 255, 255); stroke-opacity: 1; stroke-width: 2px;"/></g><path class="xlines-below"/><path class="ylines-below"/><g class="overlines-below"/><g class="xaxislayer-below"/><g class="yaxislayer-below"/><g class="overaxes-below"/><g class="plot" transform="translate(83,22)" clip-path="url(#clip7b19b6xyplot)"><g class="scatterlayer mlayer"><g class="trace scatter trace1ef73d" style="stroke-miterlimit: 2; opacity: 1;"><g class="fills"/><g class="errorbars"/><g class="lines"><path class="js-line" d="M48.55,296.15L722.45,296.15" style="vector-effect: none; fill: none; stroke: rgb(0, 0, 0); stroke-opacity: 1; stroke-width: 4px; opacity: 1;"/></g><g class="points"/><g class="text"/></g><g class="trace scatter traced8dff8" style="stroke-miterlimit: 2; opacity: 0.99;"><g class="fills"/><g class="errorbars"><g class="errorbar" style="opacity: 1;"><path class="yerror" d="M43.55,296.15h10m-5,0V296.15m-5,0h10" style="vector-effect: none; stroke-width: 2.5px; stroke: rgb(128, 128, 128); stroke-opacity: 1;"/></g><g class="errorbar" style="opacity: 1;"><path class="yerror" d="M717.45,296.15h10m-5,0V296.15m-5,0h10" style="vector-effect: none; stroke-width: 2.5px; stroke: rgb(128, 128, 128); stroke-opacity: 1;"/></g></g><g class="lines"/><g class="points"><path class="point" transform="translate(48.55,296.15)" d="M8,0A8,8 0 1,1 0,-8A8,8 0 0,1 8,0Z" style="opacity: 1; stroke-width: 2px; fill: rgb(0, 100, 0); fill-opacity: 1; stroke: rgb(0, 0, 0); stroke-opacity: 1;"/><path class="point" transform="translate(722.45,296.15)" d="M8,0A8,8 0 1,1 0,-8A8,8 0 0,1 8,0Z" style="opacity: 1; stroke-width: 2px; fill: rgb(0, 100, 0); fill-opacity: 1; stroke: rgb(0, 0, 0); stroke-opacity: 1;"/></g><g class="text"/></g><g class="trace scatter traceb3e17c" style="stroke-miterlimit: 2; opacity: 1;"><g class="fills"/><g class="errorbars"/><g class="lines"/><g class="points"><path class="point" transform="translate(48.55,249.52)" d="M4.55,0L0,4.55L-4.55,0L0,-4.55Z" style="opacity: 0.8; stroke-width: 1px; fill: rgb(252, 210, 189); fill-opacity: 1; stroke: rgb(0, 0, 0); stroke-opacity: 1;"/><path class="point" transform="translate(48.55,233.35)" d="M4.55,0L0,4.55L-4.55,0L0,-4.55Z" style="opacity: 0.8; stroke-width: 1px; fill: rgb(251, 187, 164); fill-opacity: 1; stroke: rgb(0, 0, 0); stroke-opacity: 1;"/><path class="point" transform="translate(48.55,276.32)" d="M4.55,0L0,4.55L-4.55,0L0,-4.55Z" style="opacity: 0.8; stroke-width: 1px; fill: rgb(255, 245, 227); fill-opacity: 1; stroke: rgb(0, 0, 0); stroke-opacity: 1;"/><path class="point" transform="translate(48.55,156.1)" d="M4.55,0L0,4.55L-4.55,0L0,-4.55Z" style="opacity: 0.8; stroke-width: 1px; fill: rgb(243, 76, 45); fill-opacity: 1; stroke: rgb(0, 0, 0); stroke-opacity: 1;"/><path class="point" transform="translate(48.55,196.76)" d="M4.55,0L0,4.55L-4.55,0L0,-4.55Z" style="opacity: 0.8; stroke-width: 1px; fill: rgb(247, 134, 108); fill-opacity: 1; stroke: rgb(0, 0, 0); stroke-opacity: 1;"/><path class="point" transform="translate(48.55,232.86)" d="M4.55,0L0,4.55L-4.55,0L0,-4.55Z" style="opacity: 0.8; stroke-width: 1px; fill: rgb(251, 187, 164); fill-opacity: 1; stroke: rgb(0, 0, 0); stroke-opacity: 1;"/><path class="point" transform="translate(48.55,248.12)" d="M4.55,0L0,4.55L-4.55,0L0,-4.55Z" style="opacity: 0.8; stroke-width: 1px; fill: rgb(252, 204, 183); fill-opacity: 1; stroke: rgb(0, 0, 0); stroke-opacity: 1;"/><path class="point" transform="translate(722.45,100.03)" d="M4.55,0L0,4.55L-4.55,0L0,-4.55Z" style="opacity: 0.8; stroke-width: 1px; fill: rgb(223, 40, 21); fill-opacity: 1; stroke: rgb(0, 0, 0); stroke-opacity: 1;"/><path class="point" transform="translate(722.45,144.8)" d="M4.55,0L0,4.55L-4.55,0L0,-4.55Z" style="opacity: 0.8; stroke-width: 1px; fill: rgb(240, 64, 34); fill-opacity: 1; stroke: rgb(0, 0, 0); stroke-opacity: 1;"/><path class="point" transform="translate(722.45,152.92)" d="M4.55,0L0,4.55L-4.55,0L0,-4.55Z" style="opacity: 0.8; stroke-width: 1px; fill: rgb(242, 70, 39); fill-opacity: 1; stroke: rgb(0, 0, 0); stroke-opacity: 1;"/><path class="point" transform="translate(722.45,76.97)" d="M4.55,0L0,4.55L-4.55,0L0,-4.55Z" style="opacity: 0.8; stroke-width: 1px; fill: rgb(216, 29, 15); fill-opacity: 1; stroke: rgb(0, 0, 0); stroke-opacity: 1;"/><path class="point" transform="translate(722.45,173.65)" d="M4.55,0L0,4.55L-4.55,0L0,-4.55Z" style="opacity: 0.8; stroke-width: 1px; fill: rgb(244, 99, 70); fill-opacity: 1; stroke: rgb(0, 0, 0); stroke-opacity: 1;"/><path class="point" transform="translate(722.45,89.61)" d="M4.55,0L0,4.55L-4.55,0L0,-4.55Z" style="opacity: 0.8; stroke-width: 1px; fill: rgb(220, 35, 19); fill-opacity: 1; stroke: rgb(0, 0, 0); stroke-opacity: 1;"/><path class="point" transform="translate(217.03,129.16)" d="M4.55,0L0,4.55L-4.55,0L0,-4.55Z" style="opacity: 0.8; stroke-width: 1px; fill: rgb(234, 55, 30); fill-opacity: 1; stroke: rgb(0, 0, 0); stroke-opacity: 1;"/><path class="point" transform="translate(217.03,26.17)" d="M4.55,0L0,4.55L-4.55,0L0,-4.55Z" style="opacity: 0.8; stroke-width: 1px; fill: rgb(196, 0, 0); fill-opacity: 1; stroke: rgb(0, 0, 0); stroke-opacity: 1;"/><path class="point" transform="translate(553.98,105.76)" d="M4.55,0L0,4.55L-4.55,0L0,-4.55Z" style="opacity: 0.8; stroke-width: 1px; fill: rgb(226, 44, 24); fill-opacity: 1; stroke: rgb(0, 0, 0); stroke-opacity: 1;"/><path class="point" transform="translate(553.98,75.98)" d="M4.55,0L0,4.55L-4.55,0L0,-4.55Z" style="opacity: 0.8; stroke-width: 1px; fill: rgb(214, 26, 14); fill-opacity: 1; stroke: rgb(0, 0, 0); stroke-opacity: 1;"/></g><g class="text"/></g></g></g><g class="overplot"/><path class="xlines-above crisp" d="M82,458.5H855M82,21.5H855" style="fill: none; stroke-width: 1px; stroke: rgb(255, 255, 255); stroke-opacity: 1;"/><path class="ylines-above crisp" d="M82.5,22V458M854.5,22V458" style="fill: none; stroke-width: 1px; stroke: rgb(255, 255, 255); stroke-opacity: 1;"/><g class="overlines-above"/><g class="xaxislayer-above"><path class="xtick ticks crisp" d="M0,458v-5M0,22v5" transform="translate(131.55,0)" style="stroke: rgb(68, 68, 68); stroke-opacity: 1; stroke-width: 1px;"/><path class="xtick ticks crisp" d="M0,458v-5M0,22v5" transform="translate(266.33000000000004,0)" style="stroke: rgb(68, 68, 68); stroke-opacity: 1; stroke-width: 1px;"/><path class="xtick ticks crisp" d="M0,458v-5M0,22v5" transform="translate(401.11,0)" style="stroke: rgb(68, 68, 68); stroke-opacity: 1; stroke-width: 1px;"/><path class="xtick ticks crisp" d="M0,458v-5M0,22v5" transform="translate(535.89,0)" style="stroke: rgb(68, 68, 68); stroke-opacity: 1; stroke-width: 1px;"/><path class="xtick ticks crisp" d="M0,458v-5M0,22v5" transform="translate(670.67,0)" style="stroke: rgb(68, 68, 68); stroke-opacity: 1; stroke-width: 1px;"/><path class="xtick ticks crisp" d="M0,458v-5M0,22v5" transform="translate(805.45,0)" style="stroke: rgb(68, 68, 68); stroke-opacity: 1; stroke-width: 1px;"/><g class="xtick"><text text-anchor="middle" x="0" y="478.2" transform="translate(131.55,0)" style="font-family: 'Open Sans', verdana, arial, sans-serif; font-size: 16px; fill: rgb(42, 63, 95); fill-opacity: 1; white-space: pre; opacity: 1;">0</text></g><g class="xtick"><text text-anchor="middle" x="0" y="478.2" style="font-family: 'Open Sans', verdana, arial, sans-serif; font-size: 16px; fill: rgb(42, 63, 95); fill-opacity: 1; white-space: pre; opacity: 1;" transform="translate(266.33000000000004,0)">0.2</text></g><g class="xtick"><text text-anchor="middle" x="0" y="478.2" style="font-family: 'Open Sans', verdana, arial, sans-serif; font-size: 16px; fill: rgb(42, 63, 95); fill-opacity: 1; white-space: pre; opacity: 1;" transform="translate(401.11,0)">0.4</text></g><g class="xtick"><text text-anchor="middle" x="0" y="478.2" style="font-family: 'Open Sans', verdana, arial, sans-serif; font-size: 16px; fill: rgb(42, 63, 95); fill-opacity: 1; white-space: pre; opacity: 1;" transform="translate(535.89,0)">0.6</text></g><g class="xtick"><text text-anchor="middle" x="0" y="478.2" style="font-family: 'Open Sans', verdana, arial, sans-serif; font-size: 16px; fill: rgb(42, 63, 95); fill-opacity: 1; white-space: pre; opacity: 1;" transform="translate(670.67,0)">0.8</text></g><g class="xtick"><text text-anchor="middle" x="0" y="478.2" style="font-family: 'Open Sans', verdana, arial, sans-serif; font-size: 16px; fill: rgb(42, 63, 95); fill-opacity: 1; white-space: pre; opacity: 1;" transform="translate(805.45,0)">1</text></g></g><g class="yaxislayer-above"><path class="ytick ticks crisp" d="M83,0h5M854,0h-5" transform="translate(0,400.38)" style="stroke: rgb(68, 68, 68); stroke-opacity: 1; stroke-width: 1px;"/><path class="ytick ticks crisp" d="M83,0h5M854,0h-5" transform="translate(0,318.15)" style="stroke: rgb(68, 68, 68); stroke-opacity: 1; stroke-width: 1px;"/><path class="ytick ticks crisp" d="M83,0h5M854,0h-5" transform="translate(0,235.92)" style="stroke: rgb(68, 68, 68); stroke-opacity: 1; stroke-width: 1px;"/><path class="ytick ticks crisp" d="M83,0h5M854,0h-5" transform="translate(0,153.69)" style="stroke: rgb(68, 68, 68); stroke-opacity: 1; stroke-width: 1px;"/><path class="ytick ticks crisp" d="M83,0h5M854,0h-5" transform="translate(0,71.46000000000001)" style="stroke: rgb(68, 68, 68); stroke-opacity: 1; stroke-width: 1px;"/><g class="ytick"><text text-anchor="end" x="78.8" y="5.6" transform="translate(0,400.38)" style="font-family: 'Open Sans', verdana, arial, sans-serif; font-size: 16px; fill: rgb(42, 63, 95); fill-opacity: 1; white-space: pre; opacity: 1;">−0.02</text></g><g class="ytick"><text text-anchor="end" x="78.8" y="5.6" style="font-family: 'Open Sans', verdana, arial, sans-serif; font-size: 16px; fill: rgb(42, 63, 95); fill-opacity: 1; white-space: pre; opacity: 1;" transform="translate(0,318.15)">0</text></g><g class="ytick"><text text-anchor="end" x="78.8" y="5.6" style="font-family: 'Open Sans', verdana, arial, sans-serif; font-size: 16px; fill: rgb(42, 63, 95); fill-opacity: 1; white-space: pre; opacity: 1;" transform="translate(0,235.92)">0.02</text></g><g class="ytick"><text text-anchor="end" x="78.8" y="5.6" style="font-family: 'Open Sans', verdana, arial, sans-serif; font-size: 16px; fill: rgb(42, 63, 95); fill-opacity: 1; white-space: pre; opacity: 1;" transform="translate(0,153.69)">0.04</text></g><g class="ytick"><text text-anchor="end" x="78.8" y="5.6" style="font-family: 'Open Sans', verdana, arial, sans-serif; font-size: 16px; fill: rgb(42, 63, 95); fill-opacity: 1; white-space: pre; opacity: 1;" transform="translate(0,71.46000000000001)">0.06</text></g></g><g class="overaxes-above"/></g></g><g class="polarlayer"/><g class="smithlayer"/><g class="ternarylayer"/><g class="geolayer"/><g class="funnelarealayer"/><g class="pielayer"/><g class="iciclelayer"/><g class="treemaplayer"/><g class="sunburstlayer"/><g class="glimages"/><defs id="topdefs-7b19b6"><g class="clips"/><clipPath id="legend7b19b6"><rect width="193" height="29" x="0" y="0"/></clipPath></defs><g class="layer-above"><g class="imagelayer"/><g class="shapelayer"/></g><g class="infolayer"><g class="legend" pointer-events="all" transform="translate(83,0.19999999999998153)"><rect class="bg" shape-rendering="crispEdges" width="193" height="29" x="0" y="0" style="stroke: rgb(68, 68, 68); stroke-opacity: 1; fill: rgb(0, 0, 0); fill-opacity: 0; stroke-width: 0px;"/><g class="scrollbox" transform="" clip-path="url(#legend7b19b6)"><g class="groups"><g class="traces" transform="translate(0,14.5)" style="opacity: 1;"><text class="legendtext" text-anchor="start" x="40" y="4.680000000000001" style="font-family: 'Open Sans', verdana, arial, sans-serif; font-size: 12px; fill: rgb(42, 63, 95); fill-opacity: 1; white-space: pre;">Above Hull</text><g class="layers" style="opacity: 1;"><g class="legendfill"/><g class="legendlines"/><g class="legendsymbols"><g class="legendpoints"><path class="scatterpts" transform="translate(20,0)" d="M4.55,0L0,4.55L-4.55,0L0,-4.55Z" style="opacity: 0.8; stroke-width: 1px; fill: rgb(252, 210, 189); fill-opacity: 1; stroke: rgb(0, 0, 0); stroke-opacity: 1;"/></g></g></g><rect class="legendtoggle" x="0" y="-9.5" width="106.9375" height="19" style="fill: rgb(0, 0, 0); fill-opacity: 0;"/></g><g class="traces" transform="translate(109.4375,14.5)" style="opacity: 1;"><text class="legendtext" text-anchor="start" x="40" y="4.680000000000001" style="font-family: 'Open Sans', verdana, arial, sans-serif; font-size: 12px; fill: rgb(42, 63, 95); fill-opacity: 1; white-space: pre;">Stable</text><g class="layers" style="opacity: 0.99;"><g class="legendfill"/><g class="legendlines"/><g class="legendsymbols"><g class="legendpoints"><path class="scatterpts" transform="translate(20,0)" d="M8,0A8,8 0 1,1 0,-8A8,8 0 0,1 8,0Z" style="opacity: 1; stroke-width: 2px; fill: rgb(0, 100, 0); fill-opacity: 1; stroke: rgb(0, 0, 0); stroke-opacity: 1;"/></g></g></g><rect class="legendtoggle" x="0" y="-9.5" width="80.5625" height="19" style="fill: rgb(0, 0, 0); fill-opacity: 0;"/></g></g></g><rect class="scrollbar" rx="20" ry="3" width="0" height="0" x="0" y="0" style="fill: rgb(128, 139, 164); fill-opacity: 1;"/></g><g class="g-gtitle"/><g class="g-xtitle" transform="translate(0,-3.703125)"><text class="xtitle" x="468.5" y="509.703125" text-anchor="middle" style="font-family: 'Open Sans', verdana, arial, sans-serif; font-size: 20px; fill: rgb(0, 0, 0); opacity: 1; font-weight: normal; white-space: pre;">Composition (fraction)</text></g><g class="g-ytitle" transform="translate(19.140625,0)"><text class="ytitle" transform="rotate(-90,0.859375,240)" x="0.859375" y="240" text-anchor="middle" style="font-family: 'Open Sans', verdana, arial, sans-serif; font-size: 20px; fill: rgb(0, 0, 0); opacity: 1; font-weight: normal; white-space: pre;">Formation energy (eV/atom)</text></g><g class="annotation" data-index="0" style="opacity: 1;"><g class="annotation-text-g" transform="rotate(0,111.33,441.5)"><g class="cursor-pointer" transform="translate(93,425)"><rect class="bg" x="0.5" y="0.5" width="36" height="32" style="stroke-width: 1px; stroke: rgb(0, 0, 0); stroke-opacity: 0; fill: rgb(0, 0, 0); fill-opacity: 0;"/><text class="annotation-text" text-anchor="middle" x="18.515625" y="26" style="font-family: 'Open Sans', verdana, arial, sans-serif; font-size: 24px; fill: rgb(0, 0, 0); fill-opacity: 1; white-space: pre;">Ga</text></g></g></g><g class="annotation" data-index="1" style="opacity: 1;"><g class="annotation-text-g" transform="rotate(0,825.67,441.5)"><g class="cursor-pointer" transform="translate(811,425)"><rect class="bg" x="0.5" y="0.5" width="28" height="32" style="stroke-width: 1px; stroke: rgb(0, 0, 0); stroke-opacity: 0; fill: rgb(0, 0, 0); fill-opacity: 0;"/><text class="annotation-text" text-anchor="middle" x="14.65625" y="26" style="font-family: 'Open Sans', verdana, arial, sans-serif; font-size: 24px; fill: rgb(0, 0, 0); fill-opacity: 1; white-space: pre;">In</text></g></g></g></g></svg>